<svg xmlns="http://www.w3.org/2000/svg" width="512" height="512"><path fill="#ffd772" fill-rule="evenodd" d="M78.647 302.202c8.965 5.84 20.383.613 20.587-11.885v-22.924h53.731v200.859a3.091 3.091 0 0 0 3.091 3.091h65.592v-238.38c0-12.705-10.395-23.099-23.099-23.099H99.235V186.94c-.204-12.499-11.622-17.726-20.587-11.885L7.425 227.327c-9.899 5.957-9.899 16.616 0 22.603z" clip-rule="evenodd"/><path fill="#eb5468" fill-rule="evenodd" d="M221.648 133.791v99.172l-24.062 124.256 24.062 114.123h68.682l19.711-95.258-19.711-72.656V133.791h14.163c11.739-.234 16.645-10.922 11.155-19.332l-49.059-66.815c-5.578-9.316-15.594-9.316-21.2 0l-49.059 66.815c-5.461 8.41-.584 19.098 11.155 19.332z" clip-rule="evenodd"/><path fill="#b1e4f9" fill-rule="evenodd" d="M313.429 280.329c-12.704 0-23.099 10.394-23.099 23.099v167.915h65.592a3.091 3.091 0 0 0 3.091-3.091V337.829h53.731v22.953c.234 12.499 11.622 17.726 20.587 11.885l71.223-52.302c4.935-2.949 7.417-7.096 7.446-11.243v-.088c-.029-4.147-2.511-8.264-7.446-11.243l-71.223-52.272c-8.965-5.84-20.354-.642-20.587 11.856v22.953h-99.315z" clip-rule="evenodd"/><path fill="#75cef8" fill-rule="evenodd" d="M343.302 314.876c-21.609 0-18.631 12.207-18.631 33.349v123.117h31.251a3.091 3.091 0 0 0 3.091-3.091V337.829h53.731v22.953c.234 12.499 11.622 17.726 20.587 11.885l71.223-52.302c4.935-2.949 7.417-7.096 7.446-11.243v-.088c-.029-4.147-2.511-8.264-7.446-11.243l-1.489-1.11-60.739 45.673c-8.965 5.84-16.236 4.994-16.47-7.505 0-19.536-11.943-19.974-29.523-19.974h-53.031z" clip-rule="evenodd"/><path fill="#e5384f" fill-rule="evenodd" d="m242.235 51.937 39.831 53.119c5.49 8.41 6.658 15.302-5.081 15.507-14.601 0-14.163 3.008-14.163 16.383v334.397h27.508V133.791h14.163c11.739-.234 16.645-10.922 11.155-19.332l-49.059-66.815c-5.578-9.316-15.594-9.316-21.2 0z" clip-rule="evenodd"/><path fill="#fbba58" fill-rule="evenodd" d="M77.771 233.343h103.286c12.703 0 12.79 6.279 12.79 18.982v219.018h27.8v-238.38c0-12.703-10.396-23.099-23.099-23.099H99.235V186.94c-.204-12.499-11.622-17.726-20.587-11.885l-27.8 20.413c8.965-5.84 20.354-.613 20.587 11.885v20.237c0 7.096-.964 5.753 6.336 5.753z" clip-rule="evenodd"/></svg>